<svg width="28" height="24" viewBox="0 0 28 24" fill="none" xmlns="http://www.w3.org/2000/svg">
<path d="M26.6879 20.7507C26.4539 20.7507 26.2342 20.8123 26.0435 20.92C25.8103 20.5555 25.4013 20.3132 24.9375 20.3132C24.4737 20.3132 24.0647 20.5555 23.8315 20.92C23.6408 20.8123 23.4211 20.7507 23.1871 20.7507C23.0331 20.7507 22.8874 20.7822 22.75 20.8312V14.1882H23.1945H23.1967C23.2238 14.1882 23.247 14.1772 23.2728 14.1724C23.3039 14.1663 23.3371 14.165 23.366 14.1532C23.3861 14.1444 23.4006 14.1287 23.4189 14.1177C23.4482 14.0993 23.4806 14.0836 23.5047 14.0587C23.5204 14.0429 23.5292 14.021 23.5423 14.0031C23.562 13.9755 23.5852 13.951 23.5979 13.92C23.6088 13.8937 23.6093 13.8635 23.6149 13.8351C23.6211 13.8071 23.632 13.7808 23.632 13.7511C23.632 13.7507 23.632 13.7502 23.632 13.7502C23.632 13.7498 23.632 13.7493 23.632 13.7489L23.625 12.4364C23.625 12.4233 23.6184 12.4119 23.6171 12.3988C23.6145 12.3699 23.6079 12.3423 23.5996 12.3139C23.5948 12.299 23.5957 12.282 23.59 12.2675C23.5843 12.2544 23.5734 12.2448 23.5664 12.2321C23.5598 12.2207 23.5589 12.2072 23.5515 12.1962L22.75 10.9931V9.81315C22.75 9.57121 22.5544 9.37565 22.3125 9.37565H14.4375V8.91234C16.6451 8.69228 18.3746 6.82459 18.3746 4.56053C18.3746 2.14859 16.4124 0.186401 14 0.186401C11.5876 0.186401 9.62544 2.14859 9.62544 4.56053C9.62544 6.82459 11.3549 8.69228 13.5625 8.91234V9.37565H5.6875C5.44556 9.37565 5.25 9.57121 5.25 9.81315V10.9931L4.4485 12.1953C4.44063 12.2067 4.43975 12.2203 4.43362 12.2317C4.41962 12.2579 4.40869 12.2842 4.40037 12.3135C4.39119 12.3419 4.3855 12.3703 4.38287 12.3997C4.38156 12.4128 4.375 12.4246 4.375 12.4382V13.7507C4.375 13.9926 4.57056 14.1882 4.8125 14.1882H5.25V20.8154C5.11525 20.776 4.97131 20.7507 4.81294 20.7507C4.57888 20.7507 4.35925 20.8123 4.1685 20.92C3.93531 20.5555 3.52669 20.3132 3.0625 20.3132C2.59831 20.3132 2.18969 20.5555 1.9565 20.92C1.76575 20.8123 1.54613 20.7507 1.31206 20.7507C0.588875 20.7507 0 21.3395 0 22.0632V23.3757C0 23.6176 0.195563 23.8132 0.4375 23.8132H5.6875H12.2452H15.7452H22.3125H27.5625C27.8044 23.8132 28 23.6176 28 23.3757V22.0632C28 21.266 27.4851 20.7507 26.6879 20.7507ZM10.5004 4.56053C10.5004 2.63115 12.0702 1.0614 14 1.0614C15.9298 1.0614 17.4996 2.63115 17.4996 4.56053C17.4996 6.4899 15.9298 8.05965 14 8.05965C12.0702 8.05965 10.5004 6.4899 10.5004 4.56053ZM23.1871 21.6257C23.429 21.6257 23.6254 21.8216 23.6254 22.0632C23.6254 22.3051 23.821 22.5007 24.0629 22.5007C24.3049 22.5007 24.5004 22.3051 24.5004 22.0632V21.6248C24.5004 21.3837 24.6964 21.1882 24.9375 21.1882C25.1786 21.1882 25.3746 21.3837 25.3746 21.6248V22.0632C25.3746 22.3051 25.5701 22.5007 25.8121 22.5007C26.054 22.5007 26.2496 22.3051 26.2496 22.0632C26.2496 21.8216 26.446 21.6257 26.6879 21.6257C27.0506 21.6257 27.125 21.8002 27.125 22.0632V22.9382H22.75V22.0632C22.75 21.8216 22.946 21.6257 23.1871 21.6257ZM5.25 13.3132V12.8757H22.7522L22.7548 13.3132H5.25ZM21.875 10.2507V10.6882H6.125V10.2507H21.875ZM5.92156 11.5632H22.0784L22.3703 12.0007H5.62975L5.92156 11.5632ZM1.31206 21.6257C1.554 21.6257 1.75044 21.8216 1.75044 22.0632C1.75044 22.3051 1.946 22.5007 2.18794 22.5007C2.42987 22.5007 2.62544 22.3051 2.62544 22.0632V21.6248C2.62544 21.3837 2.82144 21.1882 3.0625 21.1882C3.30356 21.1882 3.49956 21.3837 3.49956 21.6248V22.0632C3.49956 22.3051 3.69512 22.5007 3.93706 22.5007C4.179 22.5007 4.37456 22.3051 4.37456 22.0632C4.37456 21.8216 4.571 21.6257 4.81294 21.6257C5.17563 21.6257 5.25 21.8002 5.25 22.0632V22.9382H0.875V22.0632C0.875 21.8216 1.071 21.6257 1.31206 21.6257ZM6.125 22.0632V14.1882H21.875V22.0632V22.9382H16.1827V16.3765C16.1827 16.1346 15.9871 15.939 15.7452 15.939H12.2452C12.0033 15.939 11.8077 16.1346 11.8077 16.3765V22.9382H6.125V22.0632ZM15.3077 19.4382H12.6827V16.814H15.3077V19.4382ZM12.6827 22.9382V20.3132H15.3077V22.9382H12.6827Z" fill="#7E8B9B"/>
</svg>
