<svg width="22" height="23" viewBox="0 0 22 23" fill="none" xmlns="http://www.w3.org/2000/svg">
<path d="M20.5247 8.76824C20.6376 8.84241 20.7896 8.81165 20.8641 8.69877C20.9695 8.53907 21.0615 8.35879 21.1377 8.16298C21.2367 7.90837 21.2919 7.64603 21.3018 7.38335C21.3023 7.3691 21.3025 7.34612 21.2981 7.25343C21.2888 7.06 21.1768 6.88354 21.0055 6.79285C20.9304 6.75311 20.9061 6.7413 20.8895 6.73429C20.6474 6.63159 20.3865 6.57005 20.1141 6.55142C19.6511 6.51977 19.2436 6.59403 18.8317 6.78514C18.7879 6.80545 18.7449 6.82837 18.7024 6.85245C18.6294 6.82488 18.5528 6.80512 18.4732 6.79482C18.4796 6.39982 18.2606 6.04033 17.8885 5.85344C17.5163 5.66661 17.0972 5.7057 16.7843 5.94677C16.6903 5.8497 16.5804 5.77476 16.4609 5.72268C16.4578 5.61854 16.4398 5.51264 16.405 5.40764C16.274 5.01231 15.9501 4.74361 15.5583 4.6928C15.5648 4.29783 15.3458 3.93838 14.9736 3.75151C14.9736 3.75149 14.9736 3.75151 14.9736 3.75149C14.6015 3.56463 14.1823 3.60369 13.8694 3.84476C13.5947 3.56088 13.1857 3.46157 12.7904 3.59259C12.6854 3.62742 12.5895 3.67606 12.5041 3.73578C12.391 3.67115 12.2653 3.62774 12.1314 3.61038C12.1379 3.21543 11.9189 2.85595 11.5468 2.66904C11.5467 2.66903 11.5468 2.66904 11.5467 2.66903C11.1746 2.48219 10.7555 2.52123 10.4425 2.76233C10.3868 2.70473 10.3252 2.65513 10.2597 2.6131C10.2535 2.56452 10.246 2.5164 10.2362 2.46902C10.1434 2.02447 9.95962 1.65329 9.65772 1.30088C9.47999 1.09348 9.27481 0.920947 9.04802 0.788247C9.03238 0.779151 9.00839 0.766666 8.93158 0.730108C8.75666 0.646952 8.54817 0.662457 8.38744 0.770615C8.31003 0.822742 8.29245 0.836061 8.28107 0.845185C8.07621 1.01016 7.8988 1.21113 7.75381 1.44246C7.49699 1.85217 7.36133 2.27226 7.35067 2.69102L7.35065 2.69105C7.34077 3.08015 7.43859 3.47422 7.64134 3.86221C7.65927 3.89651 7.67808 3.93008 7.69737 3.96322C7.52258 4.32993 7.56415 4.73884 7.80063 5.04576C7.70558 5.13774 7.63176 5.24503 7.5798 5.36154C7.48773 5.32437 7.39256 5.29054 7.29294 5.26084C6.99905 5.1732 6.70055 5.13521 6.40565 5.14797C6.39048 5.14864 6.36556 5.15046 6.26176 5.16386C6.05512 5.1906 5.87563 5.32614 5.79337 5.51763C5.75218 5.61341 5.74359 5.63699 5.73872 5.65172C5.64584 5.93172 5.6007 6.22919 5.60457 6.53589C5.61149 7.07932 5.73898 7.55838 5.98351 7.95975C6.19122 8.30068 6.48691 8.59077 6.863 8.82373C6.84917 9.39102 6.85972 10.0362 6.92054 10.7093C6.93274 10.8441 7.05184 10.9435 7.18653 10.9312C7.32127 10.9191 7.42062 10.8 7.40842 10.6652C7.35787 10.1059 7.34415 9.56311 7.35019 9.06913C7.57079 9.15586 7.79856 9.21427 8.03117 9.24286C8.14621 9.25699 8.25997 9.26342 8.37093 9.26275C8.3818 9.26876 8.39268 9.27473 8.40377 9.2803C8.48777 9.32248 8.57889 9.35164 8.67463 9.36672C8.67823 9.71596 8.87561 10.0315 9.20588 10.1974L9.20591 10.1974C9.53621 10.3632 9.9072 10.3331 10.1895 10.1274C10.2588 10.1952 10.3366 10.2508 10.4206 10.293C10.6393 10.4028 10.899 10.423 11.1524 10.3391C11.5032 10.2228 11.7442 9.93918 11.7983 9.59417C11.8886 9.59322 11.9766 9.57909 12.0604 9.55329C12.0897 9.63589 12.1309 9.71489 12.1841 9.78786C11.9397 10.0374 11.8561 10.4001 11.9724 10.7509C12.0564 11.0043 12.2277 11.2004 12.4464 11.3102C12.5304 11.3524 12.6215 11.3816 12.7173 11.3966C12.7209 11.7459 12.9183 12.0615 13.2486 12.2273C13.5789 12.3932 13.9498 12.363 14.2321 12.1573C14.3014 12.2251 14.3792 12.2808 14.4633 12.323C14.4747 12.3287 14.4864 12.3341 14.4981 12.3394C14.564 12.4288 14.6362 12.516 14.7158 12.5994C14.8772 12.7684 15.0594 12.9158 15.26 13.0406C13.9404 14.0465 12.0317 15.2101 10.1981 15.2763L8.58249 14.465C8.1094 13.7793 7.76695 12.8851 7.56444 11.8066L7.5548 11.7543C7.53026 11.6213 7.40249 11.5334 7.26947 11.558C7.13644 11.5825 7.04853 11.7103 7.07309 11.8433L7.08284 11.8963C7.25964 12.8379 7.54007 13.6513 7.91816 14.3234C7.72443 14.3717 7.55204 14.5008 7.45562 14.6928L7.35998 14.8833C7.18448 15.2328 7.32604 15.6599 7.67555 15.8354L7.7228 15.8591C7.50405 16.1674 7.0482 16.7516 6.3842 17.3111C6.24637 17.4272 6.17674 17.6037 6.1979 17.7831C6.21918 17.9635 6.32867 18.1197 6.49086 18.2012L8.45083 19.1853C8.61302 19.2668 8.80378 19.2613 8.96117 19.1706C9.11769 19.0804 9.2176 18.9192 9.22843 18.7393C9.28041 17.8754 9.47702 17.1591 9.5937 16.7986L9.64071 16.8222C9.99025 16.9977 10.4174 16.8561 10.5929 16.5066L10.6885 16.3162C10.7848 16.1245 10.7854 15.9095 10.7089 15.7254C12.0272 15.5584 13.4863 14.9134 15.0557 13.8027C15.303 13.6276 15.5347 13.4535 15.749 13.2857C16.1607 13.4484 16.5702 13.5124 16.968 13.4754C17.4359 13.4318 17.8962 13.2479 18.3362 12.9288C18.5845 12.7488 18.7962 12.5349 18.9654 12.293C18.9741 12.2806 18.9877 12.2598 19.0401 12.1693C19.1446 11.989 19.1461 11.7641 19.0442 11.5823C18.993 11.4912 18.9795 11.47 18.9709 11.4574C18.805 11.2133 18.5963 10.9966 18.3505 10.8132C18.2672 10.7511 18.1835 10.6944 18.0987 10.6427C18.161 10.5316 18.2028 10.4085 18.2198 10.2775C18.6072 10.2839 18.96 10.0729 19.1498 9.7137C19.1878 9.7094 19.2259 9.70448 19.2642 9.69838C19.4901 9.66227 19.7018 9.60181 19.8936 9.5188C20.0178 9.46503 20.0748 9.32082 20.0211 9.1967C19.9673 9.07259 19.8232 9.01552 19.699 9.06924C19.5705 9.12493 19.4293 9.16797 19.2785 9.19802C19.2767 8.98828 19.2103 8.78443 19.0838 8.61095L20.3297 7.86156C20.4456 7.79183 20.4831 7.64132 20.4133 7.52539C20.3436 7.40952 20.1932 7.37204 20.0772 7.44174L19.3766 7.86315C19.3773 7.7467 19.3591 7.62758 19.3201 7.50965C19.2796 7.38755 19.2206 7.27763 19.147 7.18236C19.4467 7.06104 19.7395 7.01684 20.0808 7.04021C20.2988 7.0551 20.5066 7.10395 20.6957 7.18415C20.6982 7.18523 20.7137 7.19263 20.7766 7.22587C20.7955 7.2359 20.8079 7.25541 20.8089 7.2769C20.8122 7.34632 20.8124 7.36487 20.8124 7.3649L20.8124 7.36484C20.8046 7.57297 20.7605 7.78177 20.6813 7.98547C20.6177 8.14898 20.5418 8.29816 20.4555 8.42885C20.3808 8.54177 20.4118 8.69372 20.5247 8.76824ZM8.73935 18.71C8.7384 18.7258 8.7307 18.738 8.71654 18.7462C8.70619 18.7522 8.68983 18.7573 8.67062 18.7476L6.71065 17.7635C6.69147 17.7538 6.68578 17.7377 6.6844 17.7258C6.68247 17.7095 6.68766 17.6961 6.69984 17.6858C7.45186 17.0522 7.94833 16.3963 8.16566 16.0816L9.15052 16.5761C9.02791 16.9384 8.79842 17.7283 8.73935 18.71ZM10.155 16.2869C10.1007 16.395 9.96858 16.4387 9.86047 16.3845L7.89531 15.3977C7.7872 15.3434 7.74342 15.2113 7.7977 15.1032L7.89334 14.9127C7.94763 14.8046 8.07972 14.7608 8.18783 14.8151L10.153 15.8019C10.2611 15.8562 10.3049 15.9883 10.2506 16.0964L10.155 16.2869ZM12.9445 4.05762C13.1334 3.99501 13.3963 4.01141 13.5676 4.24499C13.588 4.27278 13.6079 4.30448 13.6267 4.3392C13.6665 4.41256 13.7409 4.46062 13.8242 4.46664C13.9074 4.47269 13.9881 4.43597 14.0381 4.36913C14.0618 4.33746 14.086 4.30896 14.1102 4.28447C14.3135 4.07811 14.576 4.1 14.7538 4.1893C14.9316 4.27858 15.1059 4.47602 15.0618 4.76238C15.0566 4.7965 15.0483 4.83296 15.037 4.87078C15.0133 4.95084 15.032 5.03747 15.0866 5.10063C15.1412 5.16378 15.2243 5.19482 15.3069 5.18284C15.3459 5.17723 15.3831 5.17427 15.4177 5.17399C15.7073 5.17183 15.8775 5.37293 15.9401 5.5618C15.9485 5.58731 15.955 5.61442 15.9602 5.64224C15.8756 5.64961 15.7901 5.66647 15.7053 5.6946C15.4636 5.7747 15.2696 5.92714 15.1434 6.12286C15.0835 5.65519 14.8002 5.22436 14.348 4.9973C13.896 4.77031 13.3813 4.80023 12.9704 5.03128C13.0519 4.81325 13.0583 4.56673 12.9782 4.32517C12.9501 4.24038 12.9126 4.16185 12.868 4.08959C12.8934 4.07724 12.919 4.06608 12.9445 4.05762ZM15.9155 8.97871C16.1551 8.97693 16.2962 9.14379 16.3481 9.30057C16.4001 9.45732 16.3868 9.67536 16.1934 9.81713C16.043 9.92739 15.7492 10.0155 15.4436 10.0389C15.4679 9.75148 15.3728 9.46445 15.1816 9.2485C15.4407 9.08486 15.7291 8.98007 15.9155 8.97871ZM16.0027 8.10694C16.1695 7.77477 16.5754 7.64021 16.9076 7.80701C17.2398 7.9738 17.3743 8.37977 17.2075 8.71194C17.1178 8.89065 16.9588 9.01149 16.7794 9.05938C16.6476 8.75622 16.3838 8.55008 16.0683 8.50051C16.0669 8.37262 16.0394 8.24936 15.9891 8.13621C15.9934 8.1264 15.9978 8.11663 16.0027 8.10694ZM14.8978 10.2022C14.758 10.4807 14.4177 10.5935 14.1392 10.4537C13.8608 10.3138 13.748 9.97353 13.8878 9.69509C14.0276 9.41662 14.3679 9.30384 14.6464 9.44366C14.9248 9.58348 15.0376 9.92378 14.8978 10.2022ZM14.9658 8.80761C14.9451 8.58266 14.8962 8.35436 14.8167 8.15552C14.9796 8.01795 15.1791 8.03836 15.3172 8.10771C15.4553 8.17707 15.5908 8.32484 15.5778 8.53766C15.3708 8.59266 15.1585 8.68976 14.9658 8.80761ZM14.4827 8.89779C14.1956 8.8736 13.9089 8.96861 13.6931 9.1595C13.5293 8.90049 13.4242 8.61234 13.4228 8.42593C13.4211 8.18617 13.5879 8.04522 13.7447 7.99329C13.8507 7.95814 13.9846 7.95289 14.1041 8.01289C14.1614 8.04164 14.2153 8.08539 14.2612 8.14803C14.3715 8.29838 14.4593 8.59225 14.4827 8.89779ZM9.70203 5.96332C9.80803 5.92821 9.94202 5.92295 10.0615 5.98293C10.1187 6.01169 10.1727 6.05544 10.2186 6.11807C10.3288 6.2684 10.4167 6.56227 10.4401 6.86783C10.153 6.84361 9.86623 6.93864 9.65037 7.12959C9.48666 6.87054 9.38157 6.58239 9.38016 6.39596C9.37839 6.15625 9.54529 6.0153 9.70203 5.96332ZM9.63786 5.47344C9.56926 5.30089 9.57124 5.10117 9.66094 4.92252C9.82774 4.59036 10.2337 4.45579 10.5659 4.62258C10.898 4.78937 11.0326 5.19535 10.8658 5.52752C10.8609 5.53718 10.8558 5.54657 10.8505 5.55588C10.7297 5.58311 10.6143 5.63463 10.5109 5.70996C10.2827 5.48647 9.95975 5.39797 9.63786 5.47344ZM10.774 6.12556C10.937 5.98799 11.1364 6.0084 11.2745 6.07775C11.4127 6.14712 11.5482 6.29492 11.5352 6.50779C11.3282 6.56285 11.1159 6.66007 10.9231 6.77797C10.9025 6.55292 10.8536 6.32451 10.774 6.12556ZM10.6037 7.41369C10.8821 7.55351 10.9949 7.8938 10.8551 8.17227C10.7153 8.45071 10.375 8.56349 10.0966 8.42368C9.81812 8.28387 9.70533 7.94357 9.84514 7.66513C9.985 7.38668 10.3253 7.27388 10.6037 7.41369ZM11.139 7.2187C11.3981 7.05502 11.6865 6.95012 11.8729 6.94874C12.1127 6.947 12.2536 7.11388 12.3055 7.27063C12.3575 7.42739 12.3441 7.64543 12.1508 7.78719C12.0004 7.89741 11.7065 7.98518 11.401 8.0086C11.4252 7.72135 11.3301 7.43455 11.139 7.2187ZM12.7622 6.60839C12.7826 6.57642 12.8018 6.54323 12.8193 6.50846C12.9451 6.25781 12.9681 5.98597 12.8963 5.73952C13.1708 5.35524 13.6932 5.21669 14.1282 5.43513C14.5632 5.65357 14.7641 6.15526 14.6199 6.605C14.3793 6.69462 14.175 6.87539 14.0491 7.12605C14.0316 7.16081 14.0164 7.19602 14.0029 7.23149C13.7642 7.31226 13.4946 7.30151 13.2521 7.17976C13.0096 7.05799 12.84 6.84815 12.7622 6.60839ZM8.03419 3.55183C7.89868 3.26631 7.8334 2.98133 7.84042 2.70352C7.84882 2.37368 7.95935 2.03698 8.16894 1.70262C8.2849 1.51761 8.42601 1.35749 8.58589 1.22867C8.66531 1.16468 8.70688 1.16399 8.79596 1.20872C8.79917 1.21033 8.80054 1.21102 8.80042 1.21096C8.98026 1.31621 9.14353 1.45371 9.2857 1.61964C9.50822 1.87939 9.64766 2.14064 9.72935 2.45349C9.60899 2.45134 9.4856 2.46971 9.3635 2.51018C9.24557 2.54926 9.13921 2.60582 9.04626 2.67595L8.96581 1.86237C8.95248 1.72772 8.83251 1.62951 8.69794 1.64271C8.56331 1.65602 8.46497 1.77595 8.47828 1.91058L8.62136 3.35758C8.40667 3.35974 8.2035 3.42803 8.03419 3.55183ZM8.14514 4.16142C8.23444 3.98359 8.43185 3.80929 8.71824 3.85336C8.7522 3.85857 8.78866 3.8669 8.82657 3.87816C8.98829 3.92618 9.16241 3.77373 9.13867 3.60843C9.13303 3.56938 9.13005 3.53207 9.1298 3.49755C9.12766 3.20788 9.3287 3.03777 9.51757 2.97518C9.70644 2.91258 9.96937 2.9289 10.1406 3.16255C10.161 3.19033 10.1809 3.22203 10.1997 3.25675C10.2396 3.33008 10.314 3.37817 10.3973 3.38419C10.545 3.39499 10.5943 3.29232 10.6833 3.20196C10.8867 2.99565 11.1491 3.01754 11.3269 3.10681C11.5047 3.19613 11.679 3.39355 11.6349 3.67983C11.6297 3.71406 11.6213 3.75056 11.6101 3.78831C11.5864 3.86834 11.6051 3.95496 11.6597 4.0181C11.7142 4.08127 11.7973 4.11226 11.8799 4.10041C11.9189 4.09477 11.9562 4.09179 11.9907 4.09154C12.2804 4.08942 12.4505 4.29048 12.5131 4.47935C12.605 4.75643 12.4828 5.02541 12.2315 5.16147C12.1582 5.2013 12.1101 5.27574 12.1041 5.35899C12.098 5.44224 12.1348 5.52288 12.2017 5.57294C12.4308 5.74428 12.513 6.02661 12.3814 6.28862C12.34 6.37113 12.2752 6.45278 12.189 6.51219C12.1364 6.49372 12.0819 6.47941 12.0256 6.47054C12.0219 6.12132 11.8246 5.80577 11.4943 5.63994C11.4533 5.61932 11.4116 5.60175 11.3695 5.58716C11.5461 5.04897 11.3067 4.44643 10.7856 4.18476C10.2121 3.89676 9.51112 4.12907 9.22309 4.70266C9.06075 5.02596 9.06446 5.3894 9.20076 5.69684C9.04143 5.83838 8.93564 6.0289 8.90199 6.24315C8.7486 6.24478 8.60174 6.28382 8.47116 6.355C8.22079 6.32923 8.07123 6.14493 8.01345 5.97069C7.95087 5.78179 7.96721 5.51897 8.20088 5.34757C8.30034 5.27461 8.41217 5.23341 8.42249 5.09095C8.43263 4.95139 8.33226 4.90479 8.25187 4.81786C8.17832 4.73836 8.10886 4.63368 8.08876 4.52612C8.06583 4.403 8.08923 4.27277 8.14514 4.16142ZM7.21226 8.46174C6.85783 8.26038 6.58517 8.00572 6.40189 7.70487C6.20366 7.37948 6.10024 6.98413 6.09444 6.52967C6.09127 6.27763 6.12802 6.03413 6.20292 5.80825C6.25331 5.67078 6.28257 5.64359 6.42686 5.6374C6.66715 5.62704 6.91145 5.65828 7.15299 5.7303C7.27474 5.76658 7.38796 5.80864 7.49504 5.85711C7.50168 5.94592 7.51891 6.0357 7.54845 6.12483C7.64292 6.40985 7.83797 6.62831 8.08615 6.74731C8.08127 6.75637 8.07605 6.76515 8.07139 6.77443C7.942 7.03212 7.93245 7.31438 8.03196 7.56016L6.96113 6.21189C6.87696 6.10592 6.72292 6.08825 6.617 6.1724C6.51105 6.25654 6.49339 6.41063 6.57752 6.51653L7.90408 8.1868C7.86335 8.35664 7.86986 8.54026 7.92974 8.72086C7.93086 8.72423 7.93217 8.72752 7.93333 8.73088C7.68446 8.68233 7.44241 8.59247 7.21226 8.46174ZM8.55703 7.49484C8.41935 7.3319 8.43985 7.13242 8.50923 6.99425C8.57858 6.85614 8.72636 6.72057 8.93924 6.73366C8.99427 6.94073 9.09146 7.15315 9.20938 7.34597C8.98431 7.3666 8.75593 7.41539 8.55703 7.49484ZM8.82742 8.88865C8.58759 8.89043 8.44676 8.72352 8.39477 8.5668C8.34281 8.41002 8.35618 8.19199 8.54952 8.05025C8.69985 7.94001 8.99374 7.85219 9.29931 7.82879C9.2751 8.11594 9.37013 8.40266 9.56108 8.61853C9.30202 8.78219 9.01384 8.88727 8.82742 8.88865ZM9.42571 9.75958C9.2876 9.69023 9.15204 9.54245 9.16512 9.32964C9.37215 9.27462 9.58451 9.17748 9.77728 9.05958C9.79786 9.28461 9.84675 9.51294 9.92624 9.71183C9.76335 9.84941 9.56385 9.82894 9.42571 9.75958ZM10.9982 9.87406C10.8415 9.926 10.6234 9.91259 10.4817 9.71927C10.3714 9.56894 10.2833 9.27506 10.2599 8.96948C10.5472 8.99381 10.8341 8.89875 11.05 8.70769C11.2137 8.96677 11.3187 9.25502 11.3201 9.44142C11.3219 9.68117 11.155 9.82209 10.9982 9.87406ZM11.7611 9.1037C11.706 8.89667 11.6089 8.68434 11.491 8.49155C11.716 8.47096 11.9444 8.42207 12.1432 8.34258C12.2132 8.42535 12.2421 8.51755 12.2448 8.60636C12.1949 8.66561 12.1506 8.73155 12.1141 8.8044C12.0775 8.87725 12.051 8.95213 12.0332 9.02757C11.9605 9.07852 11.8692 9.11032 11.7611 9.1037ZM12.9446 8.27316C12.8543 8.27411 12.7664 8.28824 12.6826 8.31403C12.6532 8.23143 12.6121 8.15243 12.5589 8.07945C12.7168 7.91816 12.8071 7.70945 12.8201 7.48734C12.886 7.53589 12.9568 7.57961 13.0323 7.61756C13.1079 7.65551 13.1853 7.68604 13.2636 7.70991C13.0932 7.853 12.9797 8.05007 12.9446 8.27316ZM12.5997 9.52475C12.5297 9.44195 12.5008 9.34978 12.4981 9.26097C12.548 9.20169 12.5923 9.13575 12.6289 9.06287C12.6654 8.99002 12.6919 8.91517 12.7096 8.83971C12.7824 8.78878 12.8737 8.75695 12.9818 8.76359C13.0368 8.9706 13.134 9.18293 13.2518 9.37572C13.0268 9.39635 12.7985 9.44524 12.5997 9.52475ZM12.87 10.9186C12.6302 10.9203 12.4893 10.7535 12.4374 10.5968C12.3854 10.44 12.3988 10.2219 12.5922 10.0802C12.7425 9.96994 13.0364 9.88186 13.342 9.85846C13.3176 10.1457 13.4127 10.4326 13.6038 10.6485C13.3447 10.8122 13.0565 10.9172 12.87 10.9186ZM13.4684 11.7896C13.3302 11.7202 13.1947 11.5724 13.2078 11.3595C13.4148 11.3044 13.627 11.2071 13.8198 11.0892C13.8404 11.3143 13.8893 11.5428 13.9689 11.7417C13.806 11.8794 13.6065 11.8589 13.4684 11.7896ZM15.0409 11.904C14.8841 11.956 14.666 11.9425 14.5244 11.7492C14.4141 11.5989 14.3259 11.305 14.3024 10.9994C14.5897 11.0238 14.8766 10.9288 15.0926 10.7378C15.2563 10.9968 15.3614 11.285 15.3627 11.4714C15.3645 11.7111 15.1976 11.8521 15.0409 11.904ZM15.5337 10.5216C15.7587 10.5009 15.987 10.452 16.1859 10.3725C16.3235 10.5354 16.3031 10.7349 16.2337 10.873C16.1644 11.0112 16.0166 11.1467 15.8037 11.1337C15.7487 10.9266 15.6516 10.7143 15.5337 10.5216ZM18.0575 11.2059C18.2595 11.3565 18.4304 11.5338 18.5642 11.7306C18.6383 11.8395 18.6402 11.9033 18.5638 12.0124C18.426 12.2094 18.2527 12.3843 18.0486 12.5323C17.6806 12.7991 17.3017 12.9523 16.9224 12.9876C16.5717 13.0203 16.2045 12.9538 15.8313 12.7897C15.5889 12.6832 15.3724 12.5427 15.1848 12.3721C15.1882 12.3711 15.1916 12.3702 15.1949 12.3691C15.3755 12.3092 15.5267 12.2047 15.6386 12.0707L17.7706 12.137C17.9058 12.1412 18.0188 12.0351 18.023 11.8998C18.0272 11.7646 17.921 11.6515 17.7858 11.6474L16.0648 11.5938C16.3214 11.5268 16.5421 11.3506 16.6715 11.0929C16.6761 11.0836 16.6801 11.0742 16.6844 11.0648C16.9281 11.1928 17.2199 11.2188 17.5048 11.1243C17.594 11.0948 17.6762 11.055 17.7515 11.0072C17.8543 11.0642 17.9557 11.1299 18.0575 11.2059ZM18.6675 8.28683C18.6397 8.30723 18.608 8.32712 18.5733 8.34591C18.5 8.38574 18.4519 8.46018 18.4459 8.54343C18.4398 8.62668 18.4766 8.70733 18.5434 8.75732C18.575 8.781 18.6035 8.80525 18.6281 8.82949C18.8344 9.03282 18.8125 9.29527 18.7232 9.4731C18.6339 9.65092 18.4365 9.82519 18.1501 9.78112C18.1161 9.77589 18.0797 9.76756 18.0418 9.75631C17.8706 9.70554 17.7053 9.85567 17.7297 10.0259C17.7353 10.0652 17.7383 10.1025 17.7385 10.1369C17.7406 10.4266 17.5396 10.5967 17.3507 10.6593C17.1764 10.7171 16.9393 10.7071 16.7691 10.5218C16.7482 10.3746 16.6918 10.2334 16.6015 10.1095C16.7532 9.95448 16.8428 9.7559 16.8612 9.54364C17.1892 9.46929 17.4829 9.25514 17.6453 8.93182C17.9333 8.35825 17.701 7.65728 17.1274 7.36926C16.6063 7.10758 15.9801 7.2755 15.6539 7.73857C15.617 7.71353 15.578 7.69059 15.5369 7.66996C15.2067 7.50415 14.8358 7.53433 14.5535 7.73992C14.5128 7.70008 14.4689 7.66497 14.4227 7.63385C14.4188 7.52922 14.4454 7.42845 14.4869 7.34586C14.5762 7.16803 14.7736 6.99374 15.0599 7.03777C15.094 7.04302 15.1304 7.05134 15.1684 7.0626C15.2484 7.08634 15.335 7.06767 15.3981 7.01305C15.4613 6.95849 15.4923 6.87547 15.4805 6.79287C15.4748 6.75382 15.4718 6.71651 15.4716 6.682C15.4694 6.3923 15.6705 6.2222 15.8593 6.1596C16.0482 6.09699 16.311 6.11336 16.4825 6.34705C16.5028 6.37475 16.5227 6.4064 16.5415 6.44118C16.5813 6.51451 16.6557 6.56256 16.7389 6.56861C16.8222 6.5747 16.9028 6.538 16.9528 6.47121C16.9766 6.43951 17.0009 6.41096 17.0251 6.38646C17.2284 6.18011 17.4908 6.20198 17.6687 6.29125C17.8465 6.38055 18.0208 6.57799 17.9767 6.86429C17.9715 6.89838 17.9632 6.93484 17.9519 6.97275C17.9282 7.05278 17.9468 7.13936 18.0014 7.20251C18.0561 7.26573 18.139 7.29673 18.2215 7.28483C18.2608 7.27922 18.2981 7.27625 18.3325 7.27598C18.6222 7.27376 18.7924 7.47484 18.8549 7.66379C18.9175 7.85263 18.9012 8.11548 18.6675 8.28683Z" fill="#7E8B9B"/>
</svg>
