<svg width="24" height="18" viewBox="0 0 24 18" fill="none" xmlns="http://www.w3.org/2000/svg">
<path d="M23.2251 5.27238H21.3464C21.1848 5.27238 21.0439 5.3824 21.0047 5.53919L20.7572 6.52896L19.0266 1.62555C18.7653 0.885255 18.0623 0.387817 17.2771 0.387817H6.62892C5.84381 0.387817 5.14078 0.885254 4.8795 1.6256L3.14888 6.52901L2.90142 5.53919C2.86219 5.38235 2.72128 5.27238 2.5597 5.27238H0.681001C0.48647 5.27238 0.328735 5.43007 0.328735 5.62465V7.1276C0.328735 7.32218 0.48647 7.47986 0.681001 7.47986H2.62664L1.42575 9.16108C1.19972 9.47754 1.08024 9.85047 1.08024 10.2394V14.6423C1.08024 15.2523 1.37634 15.7945 1.8323 16.1328C1.83216 16.1369 1.83169 16.141 1.83169 16.1452V17.2724C1.83169 17.6738 2.15827 18.0003 2.55966 18.0003H4.81406C5.2155 18.0003 5.54203 17.6738 5.54203 17.2724V16.4974H18.3639V17.2724C18.3639 17.6738 18.6905 18.0003 19.0919 18.0003H21.3463C21.7478 18.0003 22.0743 17.6738 22.0743 17.2724V16.1452C22.0743 16.141 22.0738 16.1369 22.0737 16.1328C22.5296 15.7945 22.8257 15.2523 22.8257 14.6423V10.2394C22.8257 9.85043 22.7062 9.47749 22.4802 9.16108L21.2793 7.47986H23.225C23.4195 7.47986 23.5772 7.32218 23.5772 7.1276V5.62465C23.5773 5.43002 23.4196 5.27238 23.2251 5.27238ZM1.03327 6.77529V5.97686H2.28464L2.48424 6.77529H1.03327ZM4.83759 17.2724C4.83759 17.2853 4.82709 17.2959 4.81411 17.2959H2.5597C2.54677 17.2959 2.53622 17.2853 2.53622 17.2724V16.4974H2.93545H4.83759V17.2724ZM21.3698 17.2724C21.3698 17.2853 21.3593 17.2959 21.3464 17.2959H19.092C19.079 17.2959 19.0685 17.2853 19.0685 17.2724V16.4974H20.9706H21.3698V17.2724ZM20.9707 15.7929H2.93541C2.42377 15.7929 1.98924 15.4572 1.84008 14.9945H22.0659C21.9168 15.4572 21.4823 15.7929 20.9707 15.7929ZM14.9824 11.9886V12.7871H8.92369V11.9886H14.9824ZM8.97905 11.2841C9.1282 10.8214 9.56269 10.4857 10.0744 10.4857H13.8317C14.3434 10.4857 14.7779 10.8214 14.9271 11.2841H8.97905ZM14.9824 13.4915V14.29H8.92369V13.4915H14.9824ZM21.907 9.57054C22.0472 9.7668 22.1213 9.99808 22.1213 10.2393V14.29H15.6869V11.6364C15.6869 10.6134 14.8546 9.78119 13.8317 9.78119H10.0744C9.05142 9.78119 8.2192 10.6135 8.2192 11.6364V14.29H1.78472V10.2393C1.78472 9.99808 1.85883 9.7668 1.99903 9.57054L3.49242 7.47982H16.4618C16.6564 7.47982 16.8141 7.32213 16.8141 7.12755C16.8141 6.93297 16.6564 6.77529 16.4618 6.77529H3.80902L5.54381 1.86002C5.70591 1.40088 6.14194 1.0923 6.62892 1.0923H17.2772C17.7641 1.0923 18.2002 1.40083 18.3623 1.86002L20.097 6.77529H17.9648C17.7702 6.77529 17.6125 6.93297 17.6125 7.12755C17.6125 7.32213 17.7702 7.47982 17.9648 7.47982H20.4136L21.907 9.57054ZM22.8728 6.77529H21.4218L21.6214 5.97686H22.8728V6.77529Z" fill="#7E8B9B"/>
</svg>
