<svg width="21" height="21" viewBox="0 0 21 21" fill="none" xmlns="http://www.w3.org/2000/svg">
<path d="M20.0156 20.0158V11.4846H20.3437C20.4763 11.4846 20.596 11.4045 20.6469 11.2821C20.6977 11.1594 20.6695 11.0183 20.5757 10.9245L17.9507 8.29947C17.8893 8.23778 17.8056 8.20333 17.7187 8.20333H13.1249V5.57833H13.7812C13.9138 5.57833 14.0335 5.49827 14.0844 5.37588C14.1352 5.25316 14.107 5.11206 14.0132 5.01822L10.7319 1.73697C10.6036 1.60867 10.3963 1.60867 10.268 1.73697L6.98671 5.01822C6.89286 5.11206 6.86464 5.25316 6.9155 5.37588C6.96636 5.49827 7.08613 5.57833 7.21869 5.57833H7.87494V8.20333H3.28119C3.19424 8.20333 3.11057 8.23778 3.04921 8.29947L0.424206 10.9245C0.330362 11.0183 0.302143 11.1594 0.353003 11.2821C0.403862 11.4045 0.523628 11.4846 0.65619 11.4846H0.984315V20.0158H0.328065V20.6721H20.6718V20.0158H20.0156ZM19.3593 20.0158H16.7343V14.1096H17.3906C17.5231 14.1096 17.6429 14.0295 17.6938 13.9071C17.7446 13.7844 17.7164 13.6433 17.6226 13.5495L15.5577 11.4846H19.3593V20.0158ZM11.8124 20.0158H9.18744V19.3596C9.18744 18.6357 9.7761 18.0471 10.4999 18.0471C11.2238 18.0471 11.8124 18.6357 11.8124 19.3596V20.0158ZM10.4999 17.3908C9.41418 17.3908 8.53119 18.2738 8.53119 19.3596V20.0158H4.92182V14.1096H16.0781V20.0158H12.4687V19.3596C12.4687 18.2738 11.5857 17.3908 10.4999 17.3908ZM7.68266 10.1721H13.3172L16.5985 13.4533H4.40141L7.68266 10.1721ZM11.1562 9.51583H9.84369V8.20333C9.84369 7.84141 10.138 7.54708 10.4999 7.54708C10.8619 7.54708 11.1562 7.84141 11.1562 8.20333V9.51583ZM17.5828 8.85958L19.5516 10.8283H14.9014L13.6851 9.61197C13.6237 9.55028 13.54 9.51583 13.4531 9.51583H13.1249V8.85958H17.5828ZM10.4999 2.43292L12.9891 4.92208H8.01078L10.4999 2.43292ZM12.4687 5.57833V9.51583H11.8124V8.20333C11.8124 7.47949 11.2238 6.89083 10.4999 6.89083C9.7761 6.89083 9.18744 7.47949 9.18744 8.20333V9.51583H8.53119V5.57833H12.4687ZM3.41703 8.85958H7.87494V9.51583H7.54682C7.45986 9.51583 7.37619 9.55028 7.31483 9.61197L6.09847 10.8283H1.44828L3.41703 8.85958ZM1.64057 11.4846H5.44222L3.37733 13.5495C3.28349 13.6433 3.25527 13.7844 3.30613 13.9071C3.35699 14.0295 3.47675 14.1096 3.60932 14.1096H4.26557V20.0158H1.64057V11.4846Z" fill="#7E8B9B"/>
<path d="M8.53125 14.7656H6.5625C6.38137 14.7656 6.23438 14.9126 6.23438 15.0938V17.0625C6.23438 17.2436 6.38137 17.3906 6.5625 17.3906H8.53125C8.71237 17.3906 8.85937 17.2436 8.85937 17.0625V15.0938C8.85937 14.9126 8.71237 14.7656 8.53125 14.7656ZM8.20312 16.7344H6.89062V15.4219H8.20312V16.7344Z" fill="#7E8B9B"/>
<path d="M14.4375 17.3906C14.6186 17.3906 14.7656 17.2436 14.7656 17.0625V15.0938C14.7656 14.9126 14.6186 14.7656 14.4375 14.7656H12.4688C12.2876 14.7656 12.1406 14.9126 12.1406 15.0938V17.0625C12.1406 17.2436 12.2876 17.3906 12.4688 17.3906H14.4375ZM12.7969 15.4219H14.1094V16.7344H12.7969V15.4219Z" fill="#7E8B9B"/>
<path d="M15.0938 3.60938C15.6365 3.60938 16.0781 3.16772 16.0781 2.625C16.0781 2.08228 15.6365 1.64062 15.0938 1.64062C14.551 1.64062 14.1094 2.08228 14.1094 2.625C14.1094 3.16772 14.551 3.60938 15.0938 3.60938ZM15.0938 2.29688C15.2745 2.29688 15.4219 2.4442 15.4219 2.625C15.4219 2.8058 15.2745 2.95312 15.0938 2.95312C14.913 2.95312 14.7656 2.8058 14.7656 2.625C14.7656 2.4442 14.913 2.29688 15.0938 2.29688Z" fill="#7E8B9B"/>
<path d="M6.89062 2.29688C7.43334 2.29688 7.875 1.85522 7.875 1.3125C7.875 0.769781 7.43334 0.328125 6.89062 0.328125C6.34791 0.328125 5.90625 0.769781 5.90625 1.3125C5.90625 1.85522 6.34791 2.29688 6.89062 2.29688ZM6.89062 0.984375C7.07142 0.984375 7.21875 1.1317 7.21875 1.3125C7.21875 1.4933 7.07142 1.64062 6.89062 1.64062C6.70983 1.64062 6.5625 1.4933 6.5625 1.3125C6.5625 1.1317 6.70983 0.984375 6.89062 0.984375Z" fill="#7E8B9B"/>
<path d="M2.625 6.89062C3.16772 6.89062 3.60938 6.44897 3.60938 5.90625C3.60938 5.36353 3.16772 4.92188 2.625 4.92188C2.08228 4.92188 1.64062 5.36353 1.64062 5.90625C1.64062 6.44897 2.08228 6.89062 2.625 6.89062ZM2.625 5.57812C2.8058 5.57812 2.95312 5.72545 2.95312 5.90625C2.95312 6.08705 2.8058 6.23438 2.625 6.23438C2.4442 6.23438 2.29688 6.08705 2.29688 5.90625C2.29688 5.72545 2.4442 5.57812 2.625 5.57812Z" fill="#7E8B9B"/>
<path d="M17.7188 7.21875C18.2615 7.21875 18.7031 6.77709 18.7031 6.23438C18.7031 5.69166 18.2615 5.25 17.7188 5.25C17.176 5.25 16.7344 5.69166 16.7344 6.23438C16.7344 6.77709 17.176 7.21875 17.7188 7.21875ZM17.7188 5.90625C17.8995 5.90625 18.0469 6.05358 18.0469 6.23438C18.0469 6.41517 17.8995 6.5625 17.7188 6.5625C17.538 6.5625 17.3906 6.41517 17.3906 6.23438C17.3906 6.05358 17.538 5.90625 17.7188 5.90625Z" fill="#7E8B9B"/>
</svg>
